<svg width="240" height="324" viewBox="0 0 240 324" fill="none" xmlns="http://www.w3.org/2000/svg">
<path fill-rule="evenodd" clip-rule="evenodd" d="M49.162 285.363C50.276 287.057 52.4672 286.796 53.408 285.485C64.1205 287.982 75.1029 286.998 85.9643 286.386C116.571 285.14 147.351 289.045 177.834 284.96C181.068 284.313 184.831 284.622 187.477 282.378C191.709 277.417 190.798 269.885 190.124 263.842C184.72 229.78 177.038 195.406 173.206 161.125C172.992 157.859 174.337 153.802 175.543 150.733C175.841 150.161 177.723 149.602 178.7 148.943C181.698 146.79 181.212 142.932 178.613 140.668C170.198 134.735 158.484 136.808 149.557 138.997C147.846 132.57 145.923 128.342 142.666 127.923C136.467 127.127 121.428 124.691 116.795 127.923C114.579 129.47 113.157 134.918 111.562 137.572C99.9279 137.365 76.316 121.794 71.4617 139.328C67.5177 139.6 63.6114 143.045 64.3658 147.179C59.2508 151.7 63.2852 158.48 63.2144 164.108C62.542 176.049 56.0831 186.728 53.396 198.263C47.2538 220.636 40.3018 261.331 47.9199 283.169C47.756 283.083 47.3979 283.212 47.6298 283.394C48.4924 283.637 48.6046 284.724 49.162 285.363Z" fill="white"/>
<path fill-rule="evenodd" clip-rule="evenodd" d="M182.916 279.674C181.487 268.199 180.493 254.347 180.482 242.776C180.481 241.686 182.171 241.688 182.172 242.776C182.184 254.347 183.177 268.199 184.606 279.674C184.74 280.753 183.049 280.74 182.916 279.674M172.332 208.524C170.124 209.875 167.225 208.938 165.04 208.043C164.045 207.636 164.483 206.001 165.489 206.413C167.152 207.094 169.582 208.096 171.337 207.147C173.089 206.199 173.168 203.592 173.181 201.872C173.189 200.783 174.879 200.784 174.871 201.872C174.853 204.212 174.54 207.172 172.332 208.524M168.245 261.036C166.018 259.893 164.117 258.332 162.588 256.35C161.923 255.488 163.392 254.647 164.047 255.497C165.393 257.241 167.147 258.575 169.098 259.576C170.067 260.073 169.211 261.531 168.245 261.036M157.539 202.026C153.717 217.347 151.152 232.943 149.895 248.684C149.639 251.88 149.46 255.071 149.358 258.265C149.257 259.097 149.16 259.932 149.069 260.767C148.725 263.924 148.461 267.133 148.484 270.311C148.494 271.738 148.539 273.158 148.636 274.581C148.467 274.105 148.311 273.628 148.158 273.152C147.848 272.178 147.643 271.167 147.326 270.199C147.064 269.398 146.726 268.631 146.411 267.856V267.853C146.506 264.677 146.291 261.471 146.181 258.309C146.039 254.213 145.864 250.121 145.773 246.023C145.592 237.827 145.682 229.624 145.978 221.433C146.572 204.926 148.072 188.498 149.585 172.059C150.005 167.487 150.457 162.918 150.77 158.338C151.085 153.71 151.211 149.072 151.247 144.431C151.249 144.097 150.742 144.009 150.649 144.332C150.567 143.231 150.421 142.132 150.178 141.069C153.823 143.394 157.666 145.403 161.432 147.517C163.416 148.631 165.392 149.764 167.437 150.761C168.561 151.31 169.695 151.816 170.853 152.293C172.053 152.788 173.2 153.469 174.52 153.124C174.635 153.094 174.742 153.052 174.846 152.997C174.696 153.282 174.546 153.566 174.402 153.853C173.904 154.844 173.428 155.84 172.968 156.844C172.845 156.935 172.737 157.06 172.653 157.222C172.429 157.66 172.211 158.101 172 158.549C171.958 158.509 171.916 158.469 171.873 158.429C171.696 158.262 171.451 158.513 171.607 158.695C171.679 158.777 171.749 158.858 171.818 158.94C170.441 161.906 169.321 165.023 168.168 168.067C166.75 171.807 165.406 175.576 164.141 179.37C161.646 186.832 159.444 194.392 157.539 202.026M102.899 257.627C95.8549 261.401 89.2726 265.911 82.9418 270.775C82.0788 271.438 81.2379 269.968 82.0887 269.315C88.4195 264.451 95.002 259.941 102.046 256.167C103.005 255.653 103.858 257.113 102.899 257.627M79.1078 213.43C78.7417 213.403 78.3859 213.191 78.2929 212.81C77.7223 210.473 77.2755 207.927 77.8062 205.543C78.0428 204.48 79.6719 204.932 79.4359 205.992C79.0174 207.872 79.3499 209.904 79.7845 211.778C85.9279 212.047 91.989 209.842 97.8667 208.361C98.9236 208.095 99.37 209.726 98.316 209.991C92.0811 211.562 85.6319 213.913 79.1078 213.43M201.411 275.771C201.417 275.756 201.423 275.739 201.427 275.724C201.789 274.629 201.797 273.357 201.837 272.21C201.907 270.168 201.833 268.122 201.649 266.087C201.261 261.803 200.424 257.588 199.425 253.41C197.445 245.133 194.648 237.081 193.129 228.692C190.148 212.226 190.856 195.081 185.006 179.199C182.574 172.596 179.101 166.249 174.381 161.003C174.725 159.955 175.061 158.905 175.389 157.85C175.961 156.015 176.546 154.122 176.899 152.232C176.908 152.181 176.918 152.129 176.925 152.076C178.934 151.209 180.761 149.576 181.074 147.403C181.209 146.464 181.053 145.425 180.647 144.518C181.475 143.753 182.008 142.759 181.881 141.428C181.644 138.921 178.718 138.277 176.682 137.786C174.366 137.231 171.964 137.076 169.596 137.338C168.4 137.469 167.217 137.689 166.061 138.019C165.058 138.304 163.966 138.598 163.161 139.287C163.066 139.367 163.144 139.524 163.258 139.524C164.887 139.518 166.509 138.919 168.155 138.841C169.879 138.761 171.599 138.902 173.289 139.257C174.941 139.604 176.589 140.111 178.091 140.895C178.513 141.117 179.132 141.267 178.636 141.715C178.273 142.043 177.558 142.071 177.092 142.119C176.058 142.227 175.167 142.831 175.036 143.935C174.92 144.909 175.501 146.012 176.536 146.232C176.593 146.245 176.646 146.259 176.692 146.278C176.72 146.331 176.762 146.376 176.758 146.304C176.758 146.304 176.76 146.302 176.76 146.304C176.785 146.458 176.794 146.519 176.794 146.53C176.787 146.517 176.777 146.464 176.768 146.422C176.775 146.46 176.787 146.522 176.804 146.612C176.781 146.513 176.8 146.756 176.781 146.794C176.232 147.809 174.607 148.094 173.661 148.531C173.477 148.616 173.318 148.715 173.183 148.827C172.959 148.749 172.731 148.671 172.501 148.584C171.366 148.159 170.234 147.747 169.085 147.365C166.866 146.623 164.62 145.961 162.402 145.217C158.202 143.81 154.142 142.032 150.02 140.422C149.889 139.936 149.737 139.46 149.557 138.997C149.521 138.9 149.348 138.869 149.329 138.997C149.265 139.407 149.215 139.82 149.173 140.234C149.156 140.272 149.151 140.314 149.16 140.354C148.921 142.764 148.985 145.23 148.862 147.637C148.71 150.639 148.285 153.619 148.165 156.622V156.677C147.721 159.241 147.32 161.813 146.956 164.393C146.549 164.266 146.082 164.292 145.604 164.548C142.228 166.35 138.434 167.354 134.616 167.578C132.694 167.69 130.79 167.627 128.878 167.405C127.621 167.261 126.383 166.999 125.143 166.75C125.796 164.013 126.497 161.289 127.289 158.592C127.942 156.375 128.669 154.168 129.567 152.036C130.473 149.882 131.601 147.826 132.651 145.737C133.135 144.772 132.565 143.294 131.308 143.396C130.936 143.425 130.564 143.448 130.19 143.465C126.552 143.639 122.768 143.233 119.177 142.871C115.089 142.457 110.946 142.028 106.894 141.354C106.594 141.305 106.471 141.713 106.767 141.813C108.689 142.459 110.589 143.19 112.56 143.675C114.588 144.176 116.629 144.632 118.687 144.989C120.658 145.33 122.637 145.615 124.623 145.856C125.918 146.014 127.228 146.095 128.532 146.2C126.776 149.007 125.566 152.173 124.511 155.29C123.157 159.293 122.162 163.413 121.188 167.523C119.105 176.335 117.387 185.235 116.044 194.189C115.08 200.61 114.301 207.056 113.716 213.52C113.542 211.556 113.331 209.599 113.092 207.644C112.294 201.153 111.127 194.705 109.568 188.354C109.708 188.109 109.773 187.815 109.727 187.53C109.446 185.784 108.706 184.264 108.058 182.646C107.413 180.384 106.718 178.137 105.97 175.908C105.121 172.871 104.168 169.88 102.949 166.959C102.018 164.734 100.955 162.565 99.7718 160.462C98.3585 157.522 96.8056 154.646 95.1007 151.896C95.012 151.64 94.8683 151.402 94.6634 151.201C94.3528 150.71 94.038 150.226 93.7169 149.747C93.5078 149.434 92.9078 149.624 93.0662 150.021C93.1401 150.208 93.2141 150.393 93.2901 150.578C86.3458 148.84 79.5366 151.497 72.9218 153.458C71.2528 153.955 69.5669 154.403 67.8556 154.726C66.5099 154.98 64.9423 155.288 63.6007 155.009C62.7028 154.823 62.3056 154.415 62.743 153.456C63.1951 152.463 64.4289 151.809 65.5 151.37C65.9035 151.283 66.3007 151.129 66.6831 150.896C67.5747 150.355 67.9655 149.227 67.5451 148.265C67.1627 147.396 66.0472 146.648 65.0606 147.046C64.919 147.103 64.7796 147.158 64.6401 147.213C64.6254 147.191 64.6085 147.162 64.5937 147.12C64.4521 146.733 64.3909 147.196 64.4521 146.642C64.5535 145.737 65.5106 144.915 66.1655 144.397C67.7944 143.106 70.1479 142.151 72.25 142.639C72.4085 142.675 72.5669 142.719 72.7232 142.774C74.8887 143.525 75.943 140.405 74.2127 139.243C74.107 139.173 73.9739 139.084 73.8282 138.981C73.1078 138.48 72.0535 137.636 72.3409 136.876C72.6958 135.931 74.7894 135.388 75.5817 135.066C78.4465 133.904 81.5416 133.244 84.6303 133.109C87.738 132.974 90.8859 133.316 93.8838 134.155C95.3542 134.565 96.8648 135.189 98.2549 135.819C99.5035 136.383 102.22 137.129 102.394 138.71C102.432 139.059 102.928 139.177 103.036 138.797C103.887 135.762 100.583 133.802 98.4028 132.549C96.9725 131.725 95.35 131.211 93.7803 130.706C92.2761 130.22 90.7402 129.863 89.1725 129.647C85.8071 129.187 82.4014 129.246 79.0634 129.892C76.0232 130.482 72.6409 131.488 70.1838 133.445C68.6754 134.646 67.993 136.556 68.5993 138.42C68.6204 138.482 68.6416 138.545 68.6627 138.606C65.9479 139.093 63.3789 140.648 61.6613 142.817C60.25 144.598 59.5106 147.077 60.7739 149.151C60.7211 149.189 60.6683 149.229 60.6176 149.271C59.4134 150.235 58.5176 151.634 58.2514 153.164C57.7296 156.182 59.5528 158.294 62.1028 159.101C61.4711 159.718 60.8648 160.373 60.2711 161.029C58.9423 162.497 57.6725 164.097 56.5528 165.729C54.2838 169.035 52.3444 172.634 50.6479 176.261C47.1599 183.709 44.9606 191.725 43.7944 199.854C43.207 203.95 42.8141 208.067 42.6641 212.201C42.4908 216.914 42.6662 221.629 42.5754 226.344C42.4866 230.876 41.9859 235.297 40.9739 239.715C40.0042 243.939 38.7113 248.08 37.5408 252.249C36.2204 256.946 34.7669 261.621 34.0697 266.463C33.7169 268.927 33.4634 271.398 33.6599 273.89C33.8585 276.428 34.7796 278.599 35.6289 280.959C35.8444 281.562 36.5014 281.805 37.0275 281.676C37.1458 282.807 37.5725 283.91 38.2085 284.865C39.5585 286.89 41.6373 288.181 44.0183 288.65C46.7014 289.177 49.4669 289.052 52.1838 288.955C55.131 288.849 58.0803 288.754 61.0275 288.631C64.113 288.504 67.1984 288.373 70.2839 288.241C70.1819 285.077 70.0602 281.915 69.9227 278.753C69.1788 261.658 68.0073 244.553 67.9763 227.435C67.9165 227.4 67.8578 227.359 67.8016 227.304C66.4125 225.961 64.7071 225.079 63.1049 224.028C62.1981 223.433 63.0457 221.969 63.958 222.568C65.3088 223.454 66.7165 224.242 67.9824 225.235C67.9898 223.453 68.0054 221.671 68.0407 219.889C68.0623 218.801 69.7524 218.801 69.7309 219.889C69.6248 225.26 69.6603 230.632 69.7818 236.002C70.1749 253.404 71.4108 270.774 71.9737 288.169C80.2554 287.815 88.5375 287.458 96.8204 287.156C103.558 286.911 110.295 286.666 117.032 286.421C118.446 286.37 119.24 285.359 119.413 284.038C119.73 281.608 119.135 279.095 117.787 277.051C117.647 276.84 117.482 276.652 117.299 276.491C117.33 275.035 117.389 273.577 117.307 272.121C117.185 269.897 117.001 267.674 116.84 265.453C116.515 261.004 116.263 256.546 116.164 252.087C115.961 243.168 116.109 234.24 116.614 225.334C117.626 207.54 119.982 189.861 123.837 172.456C124.118 171.188 124.401 169.92 124.695 168.654C127.693 170.212 131.339 170.772 134.616 170.793C138.723 170.818 142.739 169.873 146.449 168.156C146.424 168.348 146.399 168.538 146.375 168.73C145.34 176.973 144.468 185.232 143.707 193.503C142.19 209.99 141.261 226.545 141.389 243.106C141.425 247.695 141.601 252.269 141.818 256.851C142.04 261.511 142.38 266.435 143.677 270.931C143.821 271.427 144.14 271.713 144.508 271.816C144.527 272.471 144.569 273.129 144.615 273.776C144.765 275.878 145.194 280.247 146.111 282.153C147.005 284.013 148.494 285.489 150.394 286.3C152.806 287.329 155.415 287.034 157.963 286.869C169.042 286.146 180.113 285.178 191.185 284.328C192.727 284.21 194.27 284.094 195.81 283.973C197.181 283.867 198.599 283.774 199.816 283.062C201.199 282.253 202.279 278.277 201.801 276.633C201.715 276.333 201.584 276.037 201.411 275.771" fill="black"/>
<path fill-rule="evenodd" clip-rule="evenodd" d="M162.856 78.6404C155.424 59.0784 142.026 44.7559 119.439 53.7518C118.791 53.3105 117.945 53.1921 117.135 53.7089C104.831 61.4377 95.9707 73.829 92.1309 87.8016C89.7941 88.246 87.5234 89.0213 85.4952 90.2925C81.0873 93.0555 78.1217 97.452 75.3419 101.734C74.5059 103.021 75.28 105.153 76.851 105.445C77.5334 105.572 78.2096 105.648 78.8821 105.668C78.7184 106.262 78.5029 106.837 78.2284 107.364C77.2348 109.271 79.112 111.296 80.8712 110.774C81.0664 110.878 81.2709 110.963 81.4828 111.026C81.5069 112.107 82.0619 113.553 83.1603 113.771C84.9366 114.153 87.2973 112.793 86.8781 110.805C87.4148 110.9 87.9495 110.911 88.4707 110.846C88.529 111.881 88.5108 112.961 88.6536 113.916C89.1205 118.415 93.6142 121.437 97.8996 120.068C98.1624 121.47 98.471 123.44 99.8512 124.201C101.465 128.729 104.251 133.897 108.815 135.961C108.409 137.002 108.629 138.269 109.853 138.966C118.207 143.73 128.233 145.342 137.678 143.571C141.452 143.346 145.13 142.493 148.66 140.675C151.234 139.349 153.6 137.666 155.91 135.931C158.222 134.195 160.693 132.504 162.538 130.25C164.541 127.802 165.474 124.922 166.079 121.856C168.853 107.941 167.895 94.278 162.856 81.0225C156.619 64.6143 169.091 95.0494 162.856 78.6404Z" fill="white"/>
<path fill-rule="evenodd" clip-rule="evenodd" d="M126.924 49.9397C130.727 49.6711 134.601 50.3126 138.223 51.46C144 53.2894 149.306 56.518 153.665 60.7211C158.158 65.0528 161.48 70.3934 163.501 76.2919C165.937 83.4056 166.302 91.0011 166.987 98.4269C167.334 102.179 167.905 105.873 168.498 109.589L168.592 110.176C169.172 113.796 169.498 117.457 168.697 121.071C167.366 127.078 163.374 132.177 158.637 135.945C148.904 143.685 133.753 148.404 122.422 141.282C120.669 140.18 122.33 137.362 124.041 138.51C125.246 139.318 126.522 140.027 127.89 140.516C133.607 142.56 139.886 141.832 145.537 139.931C151.105 138.057 156.449 134.891 160.557 130.667C164.873 126.23 167.265 120.749 166.919 114.512C166.713 110.801 165.868 107.159 165.399 103.479C164.984 100.219 164.735 96.9419 164.447 93.669L164.342 92.4917C163.733 85.8235 162.859 78.9723 159.826 72.9194C157.275 67.8272 153.54 63.2969 149.048 59.7982C144.346 56.1353 138.729 53.5735 132.836 52.618C125.906 51.4944 119.272 53.5376 113.492 57.341C108.365 60.7142 103.957 65.2218 100.577 70.3365C98.9377 72.8165 97.5415 75.4649 96.3358 78.181C95.1996 80.74 94.4162 83.4221 93.5025 86.0597C94.2544 86.0373 95.0187 86.0663 95.7949 86.1521C99.7761 86.5934 103.485 88.6574 105.847 91.912C108.732 95.889 107.952 100.771 109.079 105.294C109.167 105.645 109.018 105.988 108.718 106.183C107.009 107.288 104.722 107.324 103.068 106.08C101.632 105 100.958 103.048 101.539 101.342C101.615 101.12 101.939 101.159 101.948 101.398C102.057 104.301 104.749 106.536 107.388 105.155C106.256 101.255 106.852 96.8988 104.537 93.376C100.439 87.1412 91.9585 86.8836 86.0023 90.3983C82.8676 92.2478 80.3864 95.0287 78.5388 98.1393L78.0065 99.0423C77.2983 100.249 76.5483 101.614 76.4014 102.942C76.3167 103.709 76.5996 104.43 77.4789 104.043C78.1902 103.731 78.741 103.002 79.1635 102.375C79.8841 101.307 81.5401 102.23 80.9449 103.368L80.9247 103.405C80.0584 104.941 79.525 106.632 79.4271 108.395L79.4022 108.883C79.3859 109.239 79.3741 109.745 79.4494 109.763C79.5396 109.785 80.1664 109.062 80.2708 108.961C80.7736 108.478 81.2914 108.083 81.9913 107.955C82.9114 107.786 83.8398 108.925 83.0411 109.672L83.0077 109.702C82.2949 110.321 82.3266 111.558 83.114 112.137C84.2253 112.956 85.5934 111.62 85.7547 110.521L85.7601 110.48C85.9027 109.292 87.5521 109.25 87.6417 110.48C87.8363 113.149 84.6594 115.387 82.2423 114.04C81.2866 113.508 80.6789 112.533 80.4886 111.489C80.1835 111.65 79.8544 111.762 79.5064 111.793C78.3736 111.893 77.5682 111.096 77.3851 110.027C77.1717 108.781 77.2982 107.447 77.6263 106.153C77.0111 106.301 76.364 106.245 75.7135 105.869C73.7456 104.733 74.3107 102.206 75.0537 100.5C78.2259 93.2184 84.798 86.6109 92.9403 86.0863C92.9849 84.8015 93.1589 83.5869 93.4437 82.3004C96.2287 69.7168 105.251 58.0647 116.996 52.6186C120.135 51.1632 123.463 50.1843 126.924 49.9397ZM96.1217 100.207L96.2333 100.181C97.5022 99.9078 100.842 99.5865 100.439 101.723C100.42 101.823 100.274 101.811 100.248 101.723C99.8539 100.38 97.1759 101.454 96.394 101.777C95.3161 102.223 94.2528 102.88 93.3727 103.644C91.4457 105.317 90.154 107.675 89.9575 110.235C89.7627 112.776 90.4994 115.519 92.3311 117.357C93.229 118.257 94.3751 118.869 95.6626 118.914C96.8193 118.954 98.0972 118.053 99.1646 118.581C99.375 118.685 99.5417 118.97 99.5227 119.205C99.4867 119.65 99.2877 119.997 98.9915 120.265C100.778 123.523 102.241 126.971 104.52 129.933C105.664 131.419 106.96 132.796 108.428 133.967C109.125 134.524 109.884 135.013 110.666 135.443C111.582 135.947 112.376 136.262 113.03 137.116C113.587 137.844 113.029 139.252 112.11 139.377C109.945 139.672 107.84 137.921 106.251 136.609C104.663 135.298 103.29 133.682 102.156 131.966C99.9777 128.672 98.4877 124.785 97.8919 120.854C97.2002 121.073 96.4215 121.14 95.8356 121.141C94.2769 121.145 92.7885 120.584 91.5636 119.636C87.0792 116.166 86.5808 109.042 89.7454 104.55C91.2598 102.4 93.5609 100.812 96.1217 100.207ZM96.1496 108.469C97.1894 108.378 98.2284 108.542 99.2058 108.896L99.6087 109.043C100.46 109.354 101.366 109.72 101.98 110.358C102.919 111.334 101.984 113.024 100.647 112.65C99.1675 112.237 97.9654 110.991 96.4867 110.468C95.1651 110.001 93.668 110.067 92.4951 110.872C92.3402 110.978 92.1365 110.768 92.2377 110.614C93.135 109.247 94.5515 108.609 96.1496 108.469Z" fill="black"/>
<path fill-rule="evenodd" clip-rule="evenodd" d="M138.835 118.841C140.016 116.896 142.536 121.66 142.803 122.479C143.04 123.205 143.197 123.948 143.276 124.7C144.192 124.906 145.144 124.906 146.083 124.726C147.478 124.458 148.331 123.708 149.544 123.064C150.381 122.618 151.437 123.14 151.873 123.879C152.385 124.748 152.059 125.65 151.385 126.298C150.107 127.527 147.592 127.809 145.924 127.483C144.968 127.296 144.092 126.937 143.319 126.416C143.314 126.514 143.31 126.611 143.303 126.708L143.288 126.876C143.16 128.239 142.785 129.953 141.727 130.84C139.992 132.294 137.85 129.497 139.536 128.044L139.589 128C140.637 127.153 140.865 124.88 140.809 123.628C140.772 122.811 140.623 121.983 140.365 121.205L140.312 121.05C140.235 120.83 139.388 118.744 139.082 119.01L139.068 119.025C138.942 119.176 138.738 119 138.835 118.841ZM148.271 107.866C149.866 108.837 152.297 111.099 150.581 113.504C148.561 115.624 145.652 113.193 144.219 112.093C142.89 111.241 141.397 113.433 142.63 114.428C152.987 122.099 157.19 108.12 149.078 106.726C148.185 106.572 147.853 107.566 148.271 107.866ZM131.235 98.8995C132.795 98.6228 134.392 99.0106 135.682 99.9232L135.78 99.9936C137.023 100.903 138.413 102.5 137.7 104.067C137.414 104.697 136.557 104.795 136.013 104.51C135.107 104.035 134.943 102.866 134.135 102.219C133.472 101.689 132.579 101.367 131.726 101.445C129.721 101.627 128.487 103.605 127.865 105.31C127.785 105.528 127.465 105.613 127.34 105.379C125.871 102.633 128.471 99.3902 131.235 98.8995ZM156.209 97.8632C159.196 97.617 162.692 100.715 161.905 103.868C161.528 105.382 159.284 105.338 158.886 103.868C158.666 103.059 158.688 102.344 158.106 101.672C157.626 101.118 156.943 100.795 156.209 100.845C155.401 100.899 154.655 101.304 154.088 101.872C153.576 102.385 153.27 103.136 152.739 103.59C152.609 103.702 152.434 103.709 152.305 103.59C151.393 102.749 151.94 100.996 152.519 100.117C153.347 98.8597 154.696 97.9881 156.209 97.8632ZM125.548 93.306C127.464 91.6093 130.945 89.9707 133.529 90.8058C135.014 91.2857 135.662 93.6801 134.004 94.4391C132.083 95.3179 129.869 94.9603 127.915 95.8712C127.094 96.2539 126.322 96.7322 125.751 97.4337C125.301 97.9866 124.843 98.7141 124.191 99.0328C124.02 99.1167 123.789 99.1188 123.651 98.9632C122.224 97.3481 124.302 94.4095 125.548 93.306ZM152.916 90.7215C154.1 90.3891 155.414 90.3958 156.617 90.6047C157.82 90.8135 159.04 91.3121 160.022 92.0393L160.136 92.1245C161.208 92.9324 162.487 94.108 162.418 95.5393C162.361 96.7345 161.104 97.5429 160.019 96.9164C159.135 96.4056 158.719 95.3822 157.97 94.7008C157.352 94.1384 156.626 93.695 155.851 93.3843C154.991 93.0392 154.129 92.8775 153.206 92.8621C152.495 92.8503 151.78 93.0836 151.082 93.1582C151.14 93.2761 150.588 93.2212 150.272 93.1166C150.038 93.0168 150.037 92.7207 150.118 92.5286C150.521 91.5769 151.985 90.9828 152.916 90.7215Z" fill="black"/>
<path fill-rule="evenodd" clip-rule="evenodd" d="M166.773 116.395C166.491 115.554 165.042 115.627 165.131 116.618C165.233 117.75 164.846 119.012 163.762 119.561C162.628 120.137 161.351 119.619 160.658 118.632C160.056 117.775 159.641 116.841 158.884 116.093C158.18 115.397 157.323 114.861 156.386 114.542C155.657 114.294 154.9 114.228 154.165 114.31C152.336 113.896 150.216 114.837 149.076 116.264C149.002 116.356 148.934 116.45 148.868 116.546C148.755 116.392 148.637 116.239 148.511 116.089C148.188 115.702 147.787 115.619 147.425 115.724C145.363 114.19 142.473 113.987 140.131 115.371C138.255 116.481 136.702 118.116 134.395 118.243C132.567 118.344 130.577 117.301 130.448 115.291C130.38 114.242 128.951 113.368 128.149 114.339C126.464 116.382 126.127 119.095 127.059 121.564C128.043 124.17 130.048 126.006 132.587 127.085C135.328 128.251 138.541 128.656 141.506 128.564C144.463 128.472 147.151 127.335 148.933 124.915C149.146 124.627 149.333 124.333 149.497 124.036C151.227 126.24 153.939 127.167 156.702 127.233C159.592 127.303 163.008 126.795 165.052 124.55C167.021 122.386 167.701 119.167 166.773 116.395" fill="black"/>
<path fill-rule="evenodd" clip-rule="evenodd" d="M163.095 111.466C159.925 112.993 155.501 110.74 153.369 108.38C152.593 107.521 151.995 105.062 152.293 103.503C153.102 99.2796 156.14 96.7451 159.347 95.8796C163.793 94.6795 168.267 97.7196 167.745 101.307C167.251 104.707 166.501 109.639 163.095 111.466M141.514 103.354C141.26 107.956 137.566 111.984 133.15 113.177C126.036 115.163 122.52 110.16 120.928 104.771C120.769 104.235 120.397 102.601 121.396 101.198C125.322 95.6832 134.874 96.6233 139.644 98.1374C141.041 99.4734 141.612 101.402 141.514 103.354M166.54 95.4159C166.538 95.4186 166.536 95.4209 166.534 95.4237C166.517 95.4138 166.501 95.4036 166.485 95.3939C166.503 95.4015 166.522 95.4081 166.54 95.4159M172.493 95.9478C172.079 91.2622 157.383 93.0564 155.665 93.4404C150.976 94.8201 146.925 98.5737 141.682 96.9236C136.25 90.8657 117.957 92.603 114.122 95.6889C113.396 95.404 112.513 95.5568 111.578 95.8257C106.775 95.6522 84.8487 97.3085 89.3335 103.441C90.0142 103.913 90.6943 103.433 90.7131 102.46C114.093 94.0167 111.826 101.925 114.599 101.001C115.022 101.123 115.464 101.2 115.851 101.281C117.997 101.972 118.725 101.759 119.008 104.169C120.95 122.778 145.722 116.355 143.691 101.091C145.702 100.98 147.462 100.11 149.589 100.96C151.066 115.339 162.633 115.92 166.114 110.935C168.739 107.475 167.698 102.254 171.307 99.5321C172.731 100.725 172.823 96.7 172.493 95.9478" fill="black"/>
</svg>
